# xmcd
# 
# Track frame offsets:
#     150
#     22470
#     45748
#     66675
#     99152
#     120032
#     134909
#     153167
#     171027
#     185534
#     210586
#     236848
#     258996
#     271974
#     292146
#     307020
#     323676
# 
# Disc length: 4750
# 
# Revision: 1
# Processed by: cddbd v1.5.2PL0 Copyright (c) Steve Scherf et al.
# Submitted via: fre:ac v1.0.17
# 
DISCID=02128c11
DTITLE=The Sensational Alex Harvey Band - The Best Of The Sensational Alex Harvey
DYEAR=0
DGENRE=Rock
TTITLE0=Framed
TTITLE1=Delilah
TTITLE2=Boston Tea Party
TTITLE3=The Faith Healer
TTITLE4=Long Hair Music
TTITLE5=Giddy Up A Ding Dong
TTITLE6=Next
TTITLE7=Snake Bite
TTITLE8=River Of Love
TTITLE9=Give My Compliments To The Chef
TTITLE10=Tomahawk Kid
TTITLE11=School's Out
TTITLE12=Crazy Horses
TTITLE13=Jungle Rub Out
TTITLE14=King Kong
TTITLE15=Rock N' Roll
TTITLE16=The Last Of The Teenage Idols Parts 1-2-3
EXTD=
EXTT0=
EXTT1=
EXTT2=
EXTT3=
EXTT4=
EXTT5=
EXTT6=
EXTT7=
EXTT8=
EXTT9=
EXTT10=
EXTT11=
EXTT12=
EXTT13=
EXTT14=
EXTT15=
EXTT16=
PLAYORDER=
